PathFileType	4	(x/y/z)	S01_P20_T24
DataRate	CameraRate	NumFrames	NumMarkers	Units	OrigDataRate	OrigDataStartFrame	OrigNumFrames
240	240	9	51	mm	240	301	400
Frame#	Time	Sternum			R.Acromium			L.Acromium			Top.Head			R.ASIS			L.ASIS			R.PSIS			L.PSIS			R.Great.Tro			L.Great.Tro			R.Iliac.Crest			L.Iliac.Crest			V.Sacral			R.Thigh.Upper.Post			R.Thigh.Lower.Ant			R.Thigh.Lower.Post			R.Thigh.Upper.Ant			R.Knee.Lat			R.Knee.Med			R.Shank.Upper.Post			R.Shank.Lower.Ant			R.Shank.Lower.Post			R.Shank.Upper.Ant			R.Ankle.Lat			R.Ankle.Med			R.Heel.Upper			R.Heel.Med			R.Heel.Lat			R.Toe.Lat			R.Toe.Med			R.Toe.Tip			L.Thigh.Upper.Post			L.Thigh.Lower.Ant			L.Thigh.Lower.Post			L.Thigh.Upper.Ant			L.Knee.Lat			L.Knee.Med			L.Shank.Upper.Post			L.Shank.Lower.Ant			L.Shank.Lower.Post			L.Shank.Upper.Ant			L.Ankle.Lat			L.Ankle.Med			L.Heel.Upper			L.Heel.Med			L.Heel.Lat			L.Toe.Lat			L.Toe.Med			L.Toe.Tip			Cervical.Spine			Back			
		X1	Y1	Z1	X2	Y2	Z2	X3	Y3	Z3	X4	Y4	Z4	X5	Y5	Z5	X6	Y6	Z6	X7	Y7	Z7	X8	Y8	Z8	X9	Y9	Z9	X10	Y10	Z10	X11	Y11	Z11	X12	Y12	Z12	X13	Y13	Z13	X14	Y14	Z14	X15	Y15	Z15	X16	Y16	Z16	X17	Y17	Z17	X18	Y18	Z18	X19	Y19	Z19	X20	Y20	Z20	X21	Y21	Z21	X22	Y22	Z22	X23	Y23	Z23	X24	Y24	Z24	X25	Y25	Z25	X26	Y26	Z26	X27	Y27	Z27	X28	Y28	Z28	X29	Y29	Z29	X30	Y30	Z30	X31	Y31	Z31	X32	Y32	Z32	X33	Y33	Z33	X34	Y34	Z34	X35	Y35	Z35	X36	Y36	Z36	X37	Y37	Z37	X38	Y38	Z38	X39	Y39	Z39	X40	Y40	Z40	X41	Y41	Z41	X42	Y42	Z42	X43	Y43	Z43	X44	Y44	Z44	X45	Y45	Z45	X46	Y46	Z46	X47	Y47	Z47	X48	Y48	Z48	X49	Y49	Z49	X50	Y50	Z50	X51	Y51	Z51	

301	1.25	342.86	1299.8	269.68	211.66	1552.3	437.74	208.96	1559.8	104.56	227.9	1873	266.76	287.91	1050.7	424.59	308.05	1040.3	160.51	60.095	1088.6	318.76	64.805	1085.4	214.81	210.69	1002.4	505.19	205.39	986.43	76.522	196.33	1152.8	480.51	205.03	1123.4	78.749	48.402	1050.5	264.39	306.59	704.6	502.18	398.84	661.13	489.59	341	622.58	487.26	367.05	745.37	502.42	374.39	566.25	485.36	405.68	571.88	342.88	261.2	445.85	482.49	283.67	346.62	438.93	227.79	386.33	463.59	313.71	409.16	465.11	138.15	211.39	406.42	183.68	207.46	319.99	72.916	215.89	335.96	78.791	185.37	304.63	62.541	181.4	367.21	213.78	83.981	445.58	266.39	86.645	332.09	321.48	75.309	396.58	172.96	700.96	99.84	259.27	632	99.946	184.86	611.95	116.94	238.9	723.76	81.687	233.23	525.66	109.88	258.32	529.68	248.11	161.74	395.39	89.919	208.38	297.46	114.58	151.5	318.59	92.364	220.14	373.48	106.34	101.93	110.01	126.78	128.84	116.92	222.46	30.725	76.557	172.03	40.352	50.53	205.13	38.959	50.408	143.15	246.42	40.568	101.68	275.1	46.213	223.29	336.19	57.701	170.85	125.5	1609.4	269.81	44.992	1300.3	283.73
302	1.2542	348.26	1300.2	269.97	216.92	1552.6	437.83	214.82	1560.1	104.66	233.39	1873.3	266.92	293.16	1051.3	424.7	313.32	1040.6	160.69	65.396	1089	318.94	70.124	1085.9	214.97	216.07	1003.1	505.41	210.41	986.56	76.778	201.47	1153.3	480.64	210.61	1123.8	78.917	53.682	1051	264.56	313.26	705.57	502.2	405.64	662.5	489.15	347.98	623.73	487.06	373.53	746.59	502.17	381.66	567.42	485	412.48	573.45	342.65	271.07	444.25	482.41	296.06	345.54	438.85	239.15	383.9	463.52	324.47	408.87	464.99	153.98	206.62	406.55	199.74	203.77	320.19	88.654	209.11	336.05	95.541	178.66	304.85	79.276	174.42	367.38	233.11	81.65	446.23	285.82	85.459	332.79	341.08	75.889	397.37	175.5	701.59	100.02	261.22	631.9	100.07	186.64	612.48	117.02	241.65	723.83	81.894	234.15	525.67	109.87	259.4	529.4	248.15	162.21	395.5	89.978	208.68	297.47	114.53	151.84	318.73	92.387	220.61	373.45	106.3	102	110.11	126.86	128.99	116.97	222.51	30.788	76.667	172.13	40.456	50.603	205.2	38.993	50.546	143.22	246.44	40.539	101.67	275.12	46.185	223.26	336.21	57.629	170.81	131.13	1609.7	269.74	50.557	1300.7	283.54
303	1.2583	353.67	1300.5	270.27	222.21	1552.8	437.93	220.69	1560.4	104.78	238.88	1873.4	267.08	298.42	1051.8	424.82	318.57	1040.7	160.86	70.705	1089.4	319.12	75.44	1086.3	215.14	221.45	1003.8	505.63	215.42	986.61	77.032	206.63	1153.7	480.78	216.19	1124.1	79.084	58.958	1051.4	264.72	319.81	706.42	502.18	412.31	663.73	488.68	354.82	624.74	486.82	379.93	747.67	501.9	388.78	568.47	484.63	419.11	574.87	342.39	280.91	442.57	482.36	308.45	344.43	438.83	250.52	381.4	463.49	335.18	408.53	464.9	169.96	201.86	406.78	215.93	200.07	320.49	104.6	202.3	336.24	112.51	171.92	305.18	96.241	167.44	367.66	252.54	79.453	447.01	305.32	84.375	333.61	360.69	76.606	398.29	178.08	702.18	100.21	263.21	631.77	100.19	188.46	612.96	117.11	244.42	723.86	82.108	235.12	525.66	109.87	260.51	529.1	248.21	162.72	395.6	90.047	209.02	297.47	114.49	152.21	318.87	92.419	221.12	373.41	106.27	102.07	110.2	126.95	129.16	117.02	222.58	30.85	76.775	172.23	40.558	50.674	205.27	39.028	50.685	143.29	246.45	40.509	101.65	275.14	46.155	223.23	336.23	57.549	170.77	136.77	1609.9	269.69	56.121	1301	283.36
304	1.2625	359.1	1300.8	270.57	227.53	1553	438.05	226.56	1560.5	104.9	244.38	1873.5	267.26	303.7	1052.2	424.95	323.82	1040.6	161.04	76.025	1089.7	319.29	80.753	1086.6	215.3	226.82	1004.3	505.86	220.43	986.58	77.285	211.84	1154	480.94	221.79	1124.2	79.251	64.231	1051.8	264.89	326.26	707.15	502.12	418.85	664.8	488.2	361.51	625.62	486.55	386.22	748.6	501.62	395.76	569.39	484.25	425.57	576.14	342.11	290.74	440.8	482.34	320.83	343.3	438.85	261.91	378.84	463.5	345.84	408.14	464.83	186.1	197.11	407.11	232.22	196.38	320.87	120.75	195.46	336.54	129.67	165.19	305.63	113.42	160.49	368.07	272.06	77.403	447.91	324.86	83.411	334.55	380.3	77.471	399.32	180.7	702.72	100.41	265.24	631.6	100.33	190.33	613.41	117.21	247.23	723.84	82.33	236.14	525.63	109.89	261.66	528.78	248.29	163.28	395.69	90.125	209.38	297.45	114.46	152.61	318.99	92.46	221.66	373.35	106.25	102.14	110.29	127.04	129.35	117.06	222.65	30.911	76.883	172.34	40.657	50.743	205.34	39.065	50.825	143.36	246.47	40.476	101.63	275.18	46.123	223.2	336.25	57.461	170.73	142.42	1610	269.66	61.68	1301.3	283.2
305	1.2667	364.55	1300.9	270.88	232.87	1553	438.18	232.44	1560.6	105.03	249.87	1873.5	267.44	308.99	1052.5	425.09	329.06	1040.5	161.22	81.353	1090	319.47	86.064	1086.9	215.47	232.2	1004.7	506.09	225.44	986.46	77.534	217.08	1154.2	481.12	227.39	1124.2	79.418	69.504	1052	265.06	332.59	707.76	502.02	425.26	665.71	487.71	368.06	626.36	486.25	392.42	749.38	501.33	402.6	570.2	483.84	431.86	577.25	341.79	300.55	438.96	482.33	333.2	342.16	438.91	273.32	376.24	463.56	356.46	407.7	464.78	202.38	192.4	407.53	248.61	192.71	321.36	137.1	188.63	336.97	147.03	158.5	306.19	130.82	153.58	368.6	291.67	75.509	448.92	344.43	82.581	335.58	399.91	78.493	400.45	183.35	703.22	100.62	267.31	631.4	100.47	192.24	613.82	117.32	250.07	723.79	82.558	237.22	525.58	109.91	262.84	528.43	248.39	163.87	395.77	90.211	209.78	297.42	114.44	153.05	319.1	92.511	222.26	373.27	106.24	102.22	110.38	127.14	129.55	117.09	222.74	30.971	76.99	172.45	40.754	50.812	205.41	39.105	50.965	143.43	246.48	40.44	101.61	275.21	46.088	223.17	336.29	57.363	170.69	148.08	1610	269.65	67.233	1301.4	283.06
306	1.2708	370.01	1300.8	271.19	238.25	1553	438.32	238.31	1560.6	105.18	255.37	1873.5	267.64	314.29	1052.6	425.25	334.28	1040.2	161.41	86.692	1090.1	319.65	91.374	1087.1	215.65	237.59	1005.1	506.33	230.44	986.27	77.78	222.36	1154.2	481.32	232.99	1124.2	79.585	74.777	1052.2	265.24	338.81	708.23	501.88	431.53	666.45	487.2	374.46	626.96	485.91	398.51	750.01	501.03	409.3	570.87	483.41	437.99	578.21	341.44	310.34	437.05	482.36	345.53	341.02	439.03	284.74	373.6	463.67	367.02	407.23	464.75	218.79	187.74	408.07	265.07	189.08	321.93	153.62	181.82	337.52	164.55	151.86	306.89	148.41	146.73	369.26	311.34	73.783	450.03	364.01	81.9	336.71	419.49	79.681	401.65	186.05	703.67	100.83	269.42	631.17	100.63	194.2	614.19	117.44	252.95	723.69	82.792	238.36	525.5	109.95	264.07	528.07	248.51	164.52	395.84	90.304	210.22	297.37	114.42	153.52	319.2	92.571	222.9	373.18	106.24	102.3	110.47	127.24	129.76	117.12	222.83	31.032	77.099	172.57	40.847	50.881	205.49	39.147	51.107	143.51	246.5	40.401	101.59	275.25	46.051	223.13	336.32	57.256	170.65	153.74	1610	269.66	72.777	1301.4	282.94
307	1.275	375.49	1300.7	271.5	243.65	1552.9	438.48	244.18	1560.4	105.34	260.87	1873.4	267.84	319.61	1052.7	425.43	339.5	1039.8	161.59	92.041	1090.2	319.84	96.683	1087.2	215.83	242.97	1005.3	506.57	235.45	986	78.022	227.7	1154.2	481.53	238.59	1124	79.752	80.05	1052.3	265.42	344.91	708.57	501.69	437.68	667.03	486.67	380.72	627.41	485.54	404.51	750.48	500.71	415.87	571.43	482.96	443.97	579	341.06	320.12	435.08	482.41	357.83	339.89	439.2	296.17	370.95	463.84	377.54	406.73	464.74	235.32	183.15	408.71	281.6	185.52	322.61	170.3	175.07	338.2	182.23	145.3	307.71	166.17	139.98	370.06	331.07	72.233	451.23	383.58	81.381	337.92	439.02	81.039	402.91	188.8	704.08	101.05	271.58	630.91	100.78	196.22	614.51	117.57	255.86	723.56	83.031	239.56	525.4	109.99	265.35	527.68	248.65	165.22	395.9	90.404	210.7	297.3	114.41	154.04	319.28	92.641	223.58	373.07	106.24	102.38	110.55	127.35	129.97	117.14	222.92	31.093	77.208	172.68	40.936	50.949	205.56	39.192	51.25	143.58	246.53	40.36	101.57	275.3	46.012	223.1	336.37	57.14	170.6	159.42	1609.9	269.68	78.312	1301.4	282.85
308	1.2792	380.99	1300.5	271.82	249.09	1552.7	438.65	250.06	1560.3	105.5	266.37	1873.2	268.06	324.94	1052.6	425.61	344.71	1039.3	161.79	97.399	1090.2	320.03	101.99	1087.2	216.01	248.37	1005.4	506.82	240.45	985.66	78.261	233.08	1154	481.75	244.19	1123.7	79.919	85.325	1052.4	265.61	350.9	708.77	501.47	443.69	667.44	486.13	386.83	627.71	485.13	410.4	750.8	500.38	422.31	571.87	482.49	449.78	579.63	340.63	329.89	433.07	482.49	370.08	338.79	439.41	307.61	368.28	464.05	388	406.21	464.75	251.96	178.65	409.47	298.17	182.03	323.38	187.14	168.39	339.03	200.03	138.84	308.67	184.09	133.34	371	350.83	70.868	452.52	403.11	81.034	339.19	458.48	82.574	404.21	191.59	704.43	101.27	273.79	630.61	100.95	198.3	614.8	117.7	258.82	723.39	83.275	240.84	525.28	110.04	266.69	527.27	248.8	165.98	395.95	90.511	211.22	297.21	114.41	154.59	319.36	92.719	224.32	372.94	106.25	102.46	110.64	127.46	130.18	117.16	223.03	31.156	77.32	172.8	41.023	51.017	205.64	39.239	51.396	143.67	246.55	40.316	101.54	275.35	45.97	223.06	336.42	57.013	170.56	165.1	1609.7	269.72	83.838	1301.3	282.78
309	1.2833	386.5	1300.1	272.14	254.55	1552.4	438.84	255.93	1560	105.69	271.89	1872.9	268.28	330.29	1052.4	425.82	349.91	1038.7	161.98	102.77	1090.1	320.22	107.3	1087.2	216.21	253.77	1005.4	507.07	245.46	985.25	78.498	238.52	1153.8	481.99	249.77	1123.3	80.087	90.603	1052.3	265.81	356.77	708.84	501.21	449.57	667.68	485.57	392.8	627.87	484.68	416.19	750.96	500.05	428.64	572.18	481.99	455.45	580.09	340.16	339.63	431.03	482.6	382.28	337.72	439.67	319.05	365.62	464.31	398.41	405.67	464.78	268.69	174.25	410.33	314.76	178.63	324.24	204.09	161.81	339.98	217.94	132.52	309.76	202.15	126.84	372.07	370.6	69.692	453.87	422.59	80.869	340.5	477.85	84.286	405.55	194.44	704.74	101.5	276.07	630.28	101.12	200.45	615.05	117.85	261.83	723.18	83.523	242.19	525.13	110.1	268.1	526.84	248.97	166.79	395.98	90.624	211.78	297.1	114.41	155.19	319.42	92.803	225.11	372.78	106.27	102.56	110.73	127.57	130.4	117.17	223.14	31.221	77.434	172.93	41.107	51.086	205.73	39.289	51.544	143.75	246.58	40.269	101.52	275.4	45.925	223.03	336.48	56.877	170.51	170.79	1609.5	269.79	89.354	1301.1	282.73
